<svg width="74" height="74" viewBox="0 0 74 74" fill="none" xmlns="http://www.w3.org/2000/svg">
<rect x="0.5" y="0.5" width="73" height="73" rx="7.5" fill="url(#paint0_linear_100_3090)"/>
<rect x="0.5" y="0.5" width="73" height="73" rx="7.5" fill="url(#paint1_linear_100_3090)" fill-opacity="0.2"/>
<rect x="0.5" y="0.5" width="73" height="73" rx="7.5" stroke="url(#paint2_linear_100_3090)"/>
<path d="M49.75 29.0313C49.75 32.8455 44.0416 35.9375 37 35.9375C29.9584 35.9375 24.25 32.8455 24.25 29.0313C24.25 25.217 29.9584 22.125 37 22.125C44.0416 22.125 49.75 25.217 49.75 29.0313Z" fill="#9EFF00"/>
<path d="M37 38.0625C40.804 38.0625 44.3532 37.2319 47.0277 35.7832C48.0052 35.2537 48.9351 34.5978 49.7142 33.822C49.7379 33.9943 49.75 34.1682 49.75 34.3438C49.75 38.158 44.0416 41.25 37 41.25C29.9584 41.25 24.25 38.158 24.25 34.3438C24.25 34.1682 24.2621 33.9943 24.2858 33.822C25.0649 34.5978 25.9948 35.2537 26.9723 35.7832C29.6468 37.2319 33.196 38.0625 37 38.0625Z" fill="#9EFF00"/>
<path d="M37 43.375C40.804 43.375 44.3532 42.5444 47.0277 41.0957C48.0052 40.5662 48.9351 39.9103 49.7142 39.1345C49.7379 39.3068 49.75 39.4807 49.75 39.6562C49.75 43.4705 44.0416 46.5625 37 46.5625C29.9584 46.5625 24.25 43.4705 24.25 39.6562C24.25 39.4807 24.2621 39.3068 24.2858 39.1345C25.0649 39.9103 25.9948 40.5662 26.9723 41.0957C29.6468 42.5444 33.196 43.375 37 43.375Z" fill="#9EFF00"/>
<path d="M37 48.6875C40.804 48.6875 44.3532 47.8569 47.0277 46.4082C48.0052 45.8787 48.9351 45.2228 49.7142 44.447C49.7379 44.6193 49.75 44.7932 49.75 44.9687C49.75 48.783 44.0416 51.875 37 51.875C29.9584 51.875 24.25 48.783 24.25 44.9687C24.25 44.7932 24.2621 44.6193 24.2858 44.447C25.0649 45.2228 25.9948 45.8787 26.9723 46.4082C29.6468 47.8569 33.196 48.6875 37 48.6875Z" fill="#9EFF00"/>
<defs>
<linearGradient id="paint0_linear_100_3090" x1="37" y1="0" x2="37" y2="74" gradientUnits="userSpaceOnUse">
<stop stop-color="#242424"/>
<stop offset="1" stop-color="#242424" stop-opacity="0"/>
</linearGradient>
<linearGradient id="paint1_linear_100_3090" x1="-95.4432" y1="-73.1591" x2="74" y2="74" gradientUnits="userSpaceOnUse">
<stop offset="0.19577" stop-color="#9EFF00"/>
<stop offset="0.708531" stop-color="#9EFF00" stop-opacity="0"/>
</linearGradient>
<linearGradient id="paint2_linear_100_3090" x1="37" y1="0" x2="37" y2="74" gradientUnits="userSpaceOnUse">
<stop stop-color="#2E2E2E"/>
<stop offset="1" stop-color="#2E2E2E" stop-opacity="0"/>
</linearGradient>
</defs>
</svg>
